<svg width="1200" height="630" viewBox="0 0 1200 630" fill="none" xmlns="http://www.w3.org/2000/svg">
  <rect width="1200" height="630" fill="#0B1020"/>
  <circle cx="979" cy="127" r="224" fill="#2DD4BF" fill-opacity="0.14"/>
  <circle cx="148" cy="532" r="200" fill="#7C3AED" fill-opacity="0.12"/>
  <g opacity="0.18">
    <path d="M0 52H1200" stroke="#334155"/>
    <path d="M0 104H1200" stroke="#334155"/>
    <path d="M0 156H1200" stroke="#334155"/>
    <path d="M0 208H1200" stroke="#334155"/>
    <path d="M0 260H1200" stroke="#334155"/>
    <path d="M0 312H1200" stroke="#334155"/>
    <path d="M0 364H1200" stroke="#334155"/>
    <path d="M0 416H1200" stroke="#334155"/>
    <path d="M0 468H1200" stroke="#334155"/>
    <path d="M0 520H1200" stroke="#334155"/>
    <path d="M0 572H1200" stroke="#334155"/>
    <path d="M75 0V630" stroke="#334155"/>
    <path d="M127 0V630" stroke="#334155"/>
    <path d="M179 0V630" stroke="#334155"/>
    <path d="M231 0V630" stroke="#334155"/>
    <path d="M283 0V630" stroke="#334155"/>
    <path d="M335 0V630" stroke="#334155"/>
    <path d="M387 0V630" stroke="#334155"/>
    <path d="M439 0V630" stroke="#334155"/>
    <path d="M491 0V630" stroke="#334155"/>
    <path d="M543 0V630" stroke="#334155"/>
    <path d="M595 0V630" stroke="#334155"/>
    <path d="M647 0V630" stroke="#334155"/>
    <path d="M699 0V630" stroke="#334155"/>
    <path d="M751 0V630" stroke="#334155"/>
    <path d="M803 0V630" stroke="#334155"/>
    <path d="M855 0V630" stroke="#334155"/>
    <path d="M907 0V630" stroke="#334155"/>
    <path d="M959 0V630" stroke="#334155"/>
    <path d="M1011 0V630" stroke="#334155"/>
    <path d="M1063 0V630" stroke="#334155"/>
    <path d="M1115 0V630" stroke="#334155"/>
  </g>
  <rect x="58" y="56" width="1084" height="518" rx="34" fill="#111827" fill-opacity="0.72" stroke="#334155"/>
  <rect x="86" y="86" width="104" height="104" rx="26" fill="#0F172A" stroke="#2DD4BF" stroke-opacity="0.4"/>
  <path d="M113.703 116H169.703V128.641H127.812V144.594H163.297V157.234H127.812V181H113.703V116Z" fill="#F8FAFC"/>
  <path d="M183 116L151.828 147.938L185.906 181H168.891L143.156 155.625V181H129.047V116H143.156V140.672L168.016 116H183Z" fill="#2DD4BF"/>
  <text x="86" y="258" fill="#94A3B8" font-family="Inter, Arial, sans-serif" font-size="24" letter-spacing="5.5">SWAPNIL KHALEKAR</text>
  <text x="86" y="355" fill="#F8FAFC" font-family="Inter, Arial, sans-serif" font-size="56" font-weight="700">AI Product Manager building</text>
  <text x="86" y="424" fill="#2DD4BF" font-family="Georgia, serif" font-size="62" font-style="italic">RAG + agentic systems</text>
  <text x="86" y="493" fill="#F8FAFC" font-family="Inter, Arial, sans-serif" font-size="56" font-weight="700">that ship—and scale.</text>
  <text x="86" y="544" fill="#94A3B8" font-family="Inter, Arial, sans-serif" font-size="24">Platform modernization · product leadership · measurable outcomes</text>
</svg>
